<svg xmlns="http://www.w3.org/2000/svg" xmlns:xlink="http://www.w3.org/1999/xlink" width="500" zoomAndPan="magnify" viewBox="0 0 375 374.999991" height="500" preserveAspectRatio="xMidYMid meet" version="1.0"><defs><g/><clipPath id="da134fda1d"><path d="M 0 175.144531 L 375 175.144531 L 375 199.855469 L 0 199.855469 Z M 0 175.144531 " clip-rule="nonzero"/></clipPath></defs><g fill="#000000" fill-opacity="1"><g transform="translate(127.218746, 225.107827)"><g><path d="M 51.375 -56.3125 C 51.375 -45.757812 47.742188 -38.6875 40.484375 -35.09375 L 57.09375 0 L 49.0625 0 L 33.4375 -32.78125 C 30.800781 -32.34375 27.90625 -32.125 24.75 -32.125 L 16.28125 -32.125 L 16.28125 0 L 8.796875 0 L 8.796875 -77 L 24.75 -77 C 33.695312 -77 40.222656 -75.601562 44.328125 -72.8125 C 49.023438 -69.664062 51.375 -64.164062 51.375 -56.3125 Z M 16.28125 -70.953125 L 16.28125 -38.171875 L 24.203125 -38.171875 C 30.722656 -38.171875 35.632812 -39.488281 38.9375 -42.125 C 42.238281 -44.769531 43.890625 -49.351562 43.890625 -55.875 C 43.890625 -64.238281 40.078125 -69.082031 32.453125 -70.40625 C 30.023438 -70.769531 27.273438 -70.953125 24.203125 -70.953125 Z M 16.28125 -70.953125 "/></g></g></g><g fill="#000000" fill-opacity="1"><g transform="translate(189.254349, 225.107827)"><g><path d="M 8.796875 0 L 8.796875 -77 L 24.75 -77 C 33.769531 -77 40.296875 -75.566406 44.328125 -72.703125 C 49.023438 -69.410156 51.375 -63.765625 51.375 -55.765625 C 51.375 -42.421875 46.238281 -34.28125 35.96875 -31.34375 C 32.664062 -30.394531 28.925781 -29.921875 24.75 -29.921875 L 16.28125 -29.921875 L 16.28125 0 Z M 16.28125 -70.953125 L 16.28125 -35.96875 L 24.203125 -35.96875 C 30.796875 -35.96875 35.722656 -37.414062 38.984375 -40.3125 C 42.253906 -43.207031 43.890625 -47.9375 43.890625 -54.5 C 43.890625 -61.0625 42.253906 -65.441406 38.984375 -67.640625 C 35.722656 -69.847656 30.796875 -70.953125 24.203125 -70.953125 Z M 16.28125 -70.953125 "/></g></g></g><g clip-path="url(#da134fda1d)"><path fill="#ffffff" d="M 0 175.144531 L 375.011719 175.144531 L 375.011719 199.855469 L 0 199.855469 Z M 0 175.144531 " fill-opacity="1" fill-rule="nonzero"/></g><g fill="#304945" fill-opacity="1"><g transform="translate(99.661726, 191.27555)"><g><path d="M 3.75 -3.90625 C 4.0625 -3.90625 4.320312 -3.96875 4.53125 -4.09375 C 4.738281 -4.226562 4.890625 -4.398438 4.984375 -4.609375 C 5.085938 -4.816406 5.140625 -5.03125 5.140625 -5.25 C 5.140625 -5.46875 5.085938 -5.6875 4.984375 -5.90625 C 4.890625 -6.125 4.738281 -6.304688 4.53125 -6.453125 C 4.320312 -6.597656 4.0625 -6.671875 3.75 -6.671875 L 2.046875 -6.671875 L 2.046875 0 L 0.953125 0 L 0.953125 -7.796875 L 3.75 -7.796875 C 4.164062 -7.796875 4.53125 -7.71875 4.84375 -7.5625 C 5.164062 -7.414062 5.429688 -7.21875 5.640625 -6.96875 C 5.847656 -6.726562 6.003906 -6.457031 6.109375 -6.15625 C 6.210938 -5.851562 6.265625 -5.550781 6.265625 -5.25 C 6.265625 -4.882812 6.1875 -4.535156 6.03125 -4.203125 C 5.882812 -3.867188 5.660156 -3.585938 5.359375 -3.359375 C 5.066406 -3.128906 4.703125 -2.972656 4.265625 -2.890625 L 6.703125 0 L 5.265625 0 L 2.453125 -3.375 L 2.453125 -3.90625 Z M 3.75 -3.90625 "/></g></g></g><g fill="#304945" fill-opacity="1"><g transform="translate(115.013109, 191.27555)"><g><path d="M 5.3125 -4.640625 L 5.3125 -7.765625 L 6.4375 -7.765625 L 6.4375 0 L 5.3125 0 L 5.3125 -3.546875 L 2.0625 -3.546875 L 2.0625 0 L 0.953125 0 L 0.953125 -7.765625 L 2.0625 -7.765625 L 2.0625 -4.640625 Z M 5.3125 -4.640625 "/></g></g></g><g fill="#304945" fill-opacity="1"><g transform="translate(131.188914, 191.27555)"><g><path d="M 1.90625 -1.953125 L 1.15625 0 L -0.046875 0 L 3.046875 -7.796875 L 3.859375 -7.796875 L 6.953125 0 L 5.765625 0 L 5.03125 -1.953125 Z M 4.625 -2.984375 L 3.46875 -6.03125 L 2.3125 -2.984375 Z M 4.625 -2.984375 "/></g></g></g><g fill="#304945" fill-opacity="1"><g transform="translate(146.958007, 191.27555)"><g><path d="M 0.953125 0 L 0.953125 -7.765625 L 5.53125 -7.765625 L 5.53125 -6.6875 L 2.0625 -6.6875 L 2.0625 -4.40625 L 5.140625 -4.40625 L 5.140625 -3.375 L 2.0625 -3.375 L 2.0625 0 Z M 0.953125 0 "/></g></g></g><g fill="#304945" fill-opacity="1"><g transform="translate(161.52895, 191.27555)"><g><path d="M 5.640625 -1.109375 L 5.640625 0 L 0.953125 0 L 0.953125 -7.78125 L 5.625 -7.78125 L 5.625 -6.671875 L 2.0625 -6.671875 L 2.0625 -4.5 L 5.5625 -4.5 L 5.5625 -3.375 L 2.0625 -3.375 L 2.0625 -1.109375 Z M 5.640625 -1.109375 "/></g></g></g><g fill="#304945" fill-opacity="1"><g transform="translate(176.462636, 191.27555)"><g><path d="M 5.671875 -1.109375 L 5.671875 0 L 0.953125 0 L 0.953125 -7.703125 L 2.0625 -7.703125 L 2.0625 -1.109375 Z M 5.671875 -1.109375 "/></g></g></g><g fill="#304945" fill-opacity="1"><g transform="translate(190.989611, 191.27555)"><g/></g></g><g fill="#304945" fill-opacity="1"><g transform="translate(202.526685, 191.27555)"><g><path d="M 3.765625 -7.703125 C 4.316406 -7.703125 4.773438 -7.578125 5.140625 -7.328125 C 5.515625 -7.078125 5.796875 -6.753906 5.984375 -6.359375 C 6.171875 -5.972656 6.265625 -5.5625 6.265625 -5.125 C 6.265625 -4.695312 6.171875 -4.285156 5.984375 -3.890625 C 5.796875 -3.503906 5.515625 -3.1875 5.140625 -2.9375 C 4.773438 -2.6875 4.316406 -2.5625 3.765625 -2.5625 L 2.0625 -2.5625 L 2.0625 0 L 0.953125 0 L 0.953125 -7.703125 Z M 3.765625 -3.65625 C 4.078125 -3.65625 4.332031 -3.726562 4.53125 -3.875 C 4.738281 -4.019531 4.894531 -4.203125 5 -4.421875 C 5.101562 -4.640625 5.15625 -4.867188 5.15625 -5.109375 C 5.15625 -5.359375 5.101562 -5.59375 5 -5.8125 C 4.894531 -6.039062 4.738281 -6.222656 4.53125 -6.359375 C 4.332031 -6.503906 4.078125 -6.578125 3.765625 -6.578125 L 2.0625 -6.578125 L 2.0625 -3.65625 Z M 3.765625 -3.65625 "/></g></g></g><g fill="#304945" fill-opacity="1"><g transform="translate(217.856091, 191.27555)"><g><path d="M 1.90625 -1.953125 L 1.15625 0 L -0.046875 0 L 3.046875 -7.796875 L 3.859375 -7.796875 L 6.953125 0 L 5.765625 0 L 5.03125 -1.953125 Z M 4.625 -2.984375 L 3.46875 -6.03125 L 2.3125 -2.984375 Z M 4.625 -2.984375 "/></g></g></g><g fill="#304945" fill-opacity="1"><g transform="translate(233.625179, 191.27555)"><g><path d="M 0.421875 -3.828125 C 0.421875 -4.367188 0.519531 -4.875 0.71875 -5.34375 C 0.914062 -5.820312 1.179688 -6.238281 1.515625 -6.59375 C 1.859375 -6.9375 2.265625 -7.21875 2.734375 -7.4375 C 3.210938 -7.65625 3.710938 -7.765625 4.234375 -7.765625 C 4.816406 -7.765625 5.351562 -7.644531 5.84375 -7.40625 C 6.332031 -7.164062 6.742188 -6.832031 7.078125 -6.40625 C 7.421875 -5.976562 7.671875 -5.472656 7.828125 -4.890625 L 6.71875 -4.890625 C 6.507812 -5.472656 6.179688 -5.914062 5.734375 -6.21875 C 5.296875 -6.519531 4.796875 -6.671875 4.234375 -6.671875 C 3.867188 -6.671875 3.515625 -6.585938 3.171875 -6.421875 C 2.828125 -6.265625 2.53125 -6.0625 2.28125 -5.8125 C 2.039062 -5.5625 1.847656 -5.265625 1.703125 -4.921875 C 1.566406 -4.585938 1.5 -4.222656 1.5 -3.828125 C 1.5 -3.441406 1.566406 -3.082031 1.703125 -2.75 C 1.835938 -2.414062 2.03125 -2.117188 2.28125 -1.859375 C 2.519531 -1.609375 2.8125 -1.410156 3.15625 -1.265625 C 3.507812 -1.117188 3.867188 -1.046875 4.234375 -1.046875 C 4.816406 -1.046875 5.335938 -1.207031 5.796875 -1.53125 C 6.253906 -1.851562 6.582031 -2.300781 6.78125 -2.875 L 7.875 -2.875 C 7.726562 -2.300781 7.484375 -1.789062 7.140625 -1.34375 C 6.796875 -0.90625 6.375 -0.5625 5.875 -0.3125 C 5.382812 -0.0625 4.835938 0.0625 4.234375 0.0625 C 3.710938 0.0625 3.21875 -0.0351562 2.75 -0.234375 C 2.289062 -0.441406 1.890625 -0.722656 1.546875 -1.078125 C 1.222656 -1.429688 0.953125 -1.84375 0.734375 -2.3125 C 0.523438 -2.789062 0.421875 -3.296875 0.421875 -3.828125 Z M 0.421875 -3.828125 "/></g></g></g><g fill="#304945" fill-opacity="1"><g transform="translate(250.713335, 191.27555)"><g><path d="M 1.90625 -1.953125 L 1.15625 0 L -0.046875 0 L 3.046875 -7.796875 L 3.859375 -7.796875 L 6.953125 0 L 5.765625 0 L 5.03125 -1.953125 Z M 4.625 -2.984375 L 3.46875 -6.03125 L 2.3125 -2.984375 Z M 4.625 -2.984375 "/></g></g></g><g fill="#304945" fill-opacity="1"><g transform="translate(266.482423, 191.27555)"><g><path d="M 0.390625 -3.84375 C 0.390625 -4.40625 0.488281 -4.925781 0.6875 -5.40625 C 0.894531 -5.894531 1.179688 -6.320312 1.546875 -6.6875 C 1.910156 -7.050781 2.332031 -7.335938 2.8125 -7.546875 C 3.300781 -7.753906 3.820312 -7.859375 4.375 -7.859375 C 4.9375 -7.859375 5.457031 -7.753906 5.9375 -7.546875 C 6.425781 -7.335938 6.851562 -7.050781 7.21875 -6.6875 C 7.582031 -6.320312 7.863281 -5.894531 8.0625 -5.40625 C 8.269531 -4.925781 8.375 -4.40625 8.375 -3.84375 C 8.375 -3.289062 8.269531 -2.773438 8.0625 -2.296875 C 7.863281 -1.816406 7.582031 -1.390625 7.21875 -1.015625 C 6.851562 -0.648438 6.425781 -0.363281 5.9375 -0.15625 C 5.457031 0.0390625 4.9375 0.140625 4.375 0.140625 C 3.820312 0.140625 3.300781 0.0390625 2.8125 -0.15625 C 2.332031 -0.363281 1.910156 -0.648438 1.546875 -1.015625 C 1.179688 -1.390625 0.894531 -1.816406 0.6875 -2.296875 C 0.488281 -2.773438 0.390625 -3.289062 0.390625 -3.84375 Z M 1.53125 -3.84375 C 1.53125 -3.320312 1.65625 -2.84375 1.90625 -2.40625 C 2.164062 -1.976562 2.507812 -1.632812 2.9375 -1.375 C 3.375 -1.125 3.851562 -1 4.375 -1 C 4.90625 -1 5.382812 -1.125 5.8125 -1.375 C 6.25 -1.632812 6.59375 -1.976562 6.84375 -2.40625 C 7.101562 -2.84375 7.234375 -3.320312 7.234375 -3.84375 C 7.234375 -4.375 7.101562 -4.851562 6.84375 -5.28125 C 6.59375 -5.71875 6.25 -6.0625 5.8125 -6.3125 C 5.382812 -6.570312 4.90625 -6.703125 4.375 -6.703125 C 3.851562 -6.703125 3.375 -6.570312 2.9375 -6.3125 C 2.507812 -6.0625 2.164062 -5.71875 1.90625 -5.28125 C 1.65625 -4.851562 1.53125 -4.375 1.53125 -3.84375 Z M 1.53125 -3.84375 "/></g></g></g></svg>